<svg xmlns="http://www.w3.org/2000/svg" viewBox="0 0 416.1 702.78"><defs><style>.cls-1{fill:#202020;}</style></defs><title>ejemploheroContainer</title><g id="Capa_2" data-name="Capa 2"><g id="index.html"><path class="cls-1" d="M414,701.31c.09,1.17.28.51.24-2.72l-.33-2.29Z"/><path class="cls-1" d="M414.57,679.59c-.17-3.8-.45-8.18-.75-5.72.32,3.76.18,4.67.56,8.72,0,3.23-.1,5.64-.23,5.09.09,1.15-.07,5,.14,6.76.26-4.2.27-9.53.06-15.09C414.42,678.16,414.5,679.31,414.57,679.59Z"/><path class="cls-1" d="M415.08,363.91l0,2C415.06,365.39,415.08,364.69,415.08,363.91Z"/><path class="cls-1" d="M415.26,168.32a18.91,18.91,0,0,0,.07,2.19A16.14,16.14,0,0,0,415.26,168.32Z"/><path class="cls-1" d="M415.63,134.93l0,2C415.64,136.14,415.65,135.39,415.63,134.93Z"/><path class="cls-1" d="M415.08,363.91l.11-5.23C415.08,358.32,415.11,361.36,415.08,363.91Z"/><path class="cls-1" d="M413.77,636.05c0,1.1,0,2,.08,2.84l0-2.66A1.06,1.06,0,0,1,413.77,636.05Z"/><path class="cls-1" d="M415.35,450.13v1.59c0,.47.08.91.13,1.32Z"/><path class="cls-1" d="M415.4,516.3a8.05,8.05,0,0,0-.39-2.59,30.17,30.17,0,0,1,.19,3.26C415.26,517,415.32,516.8,415.4,516.3Z"/><path class="cls-1" d="M414.91,621.22l0,1.87Z"/><path class="cls-1" d="M415.41,402.77a2.81,2.81,0,0,0,.1-.6A1.63,1.63,0,0,0,415.41,402.77Z"/><path class="cls-1" d="M337.92,700c-.06,0,0,0,0,0C338.31,700,338.42,700,337.92,700Z"/><path class="cls-1" d="M414.62,701.38l-1.07,0c-.11.05-.23.1-.23.15Z"/><path class="cls-1" d="M416,73.81v.27C416,75.69,416,74.78,416,73.81Z"/><path class="cls-1" d="M.45,76.85c.26-6.36.33,10.34.61.77C1,78.51.62,68.93.45,76.85Z"/><path class="cls-1" d="M413.8,634.34v0Z"/><path class="cls-1" d="M1.06,77.62h0l0-1C1.07,77.05,1.07,77.28,1.06,77.62Z"/><path class="cls-1" d="M346.31.11c.28.05.85.09,1.43.12A9.1,9.1,0,0,0,346.31.11Z"/><path class="cls-1" d="M415.42,37.9l0-2.59Z"/><path class="cls-1" d="M291.84.5c-1.41,0-1.89-.06-3.82,0l.59,0C289.3.48,290.23.46,291.84.5Z"/><path class="cls-1" d="M235.14.51l1.05.05H238Z"/><path class="cls-1" d="M165.62,700.12c1.24.08,2,.17,2.62.26C167.36,700.18,175.69,700.11,165.62,700.12Z"/><path class="cls-1" d="M413.92,636a10.37,10.37,0,0,1-.12-1.69l0,1.89C413.86,636.39,413.9,636.43,413.92,636Z"/><path class="cls-1" d="M289.53,2.72l-9,0Z"/><path class="cls-1" d="M2.76,458.59l0,2.07C2.8,459.86,2.79,459.13,2.76,458.59Z"/><path class="cls-1" d="M253.8,2.72c-1.61-.1-3.32-.15-5.08-.19-.37,0-.8,0-1,.07Z"/><path class="cls-1" d="M168.26,700.38h0Z"/><path class="cls-1" d="M227.59,699.71c-8.59,0-4,.36-5.85.58-10.25.1-4.74-.28-8.23-.46-6.4.09-11.3.43-16.07.42-.36-.06-1.29-.08-.2-.16-6.76.29-20.07,0-28,.38a8.37,8.37,0,0,1-1-.09c1.27.19,1.47.37,1.21.51-3.85,0-7.14.23-8.59,0a28.2,28.2,0,0,0,3.66-.17l-4,.11c-3.63-.35,5.5-.12,5.5-.38-7.86.11-17,.4-23,.3-1.26-.34,14.09-.11,6-.41l9.32.13c-7.12-.54,5.67,0-.88-.54-12.26-.1-13.72.17-25.95.08-2.76.18.91.27-1.85.46-17.39.34-13.69-.85-26.47-.4a88,88,0,0,1-13.7.43l3.1-.38c-11.87,0-6.78.55-19.21.29,2.21-.15,9.33-.13,7.53-.17-8.05-.31-5.7.22-11.89.22l-1.28-.34-40.58.36c.78-.11,3.18-.21-.1-.32l-12.53.07-11.78,0c.1-9.68.19-19.35.28-28.17l-.3-6.51c0-1.52.13-2.81.19-1.17.11-6.64-.18-.35-.3-3.54,0-3.77.17-5,.26-2.59-.25-11.72-.54-33.38-.22-45.72l.08,2.41c.12-9.62-.6-10.85-.33-19.77l.06,1.71c.12-20.86-.15-43.91.3-59.83-.42-3,.19-20.65-.4-22,.29-11.91.39-8.5.59-25.28,0-4.48-.37-6.67-.43-12.21l.31-.14-.32-7.52.36-4-.07-5.2a22.36,22.36,0,0,1-.23,4.09c-.07-4.06,0-9,.07-13,0-2,.1-3.71.16-5a16.44,16.44,0,0,1,.14-2.07l-.26-19.2c.12.43.17,3.64.25,6.18-.32-10.24.32-1.86,0-11.25-.07,1.26-.18-.68-.24-.89.18-4.69.18-15.34.11-23.23L3,397.89c0-14.25-.1-30-.1-46-.1,5.73-.47,4.41-.5-.27l.32-1.88c-.2-3-.12,4.9-.37-1.31,0-6,.37-4,.48-.59l-.11-7.26c.09-.43.15,1.28.27,1.72-.2-3,.33-12.53,0-16.83l.09-.41c-.05-16-.08-23.22-.12-36.24-.28-.25-.22-5.34-.45-9.22.09-9.56.31-20.18.29-31.71-.14-8.09-.24-2.36-.41-6,.26-.6.23-12.11.42-6.14,0-13.83-.05-17.67-.26-35.16-.11,1.9-.15,4-.24,2.93a45.4,45.4,0,0,1,.23-6.77l0,.84c-.39-19.64.75-45.32.21-61l0,.88-.28-16.22c0-7.46.19,4.48.35-1-.43-17.49.06-27.64-.22-42,.75-11.15-.06-39.57.43-54.62l-.18.87c-.18-3.89.1-4.7.14-7.57-.14.41-.16,4.22-.26,1.8,0-5.33,0-10.73-.05-16.23l19.8.06,21.18.13L86,2.93c12.36,0,7-.92,22.59-.5l-4.42.33c24.93-.39,51,0,75.39-.32-1.45.08-1.49.17-3.88.17,2.58.12,7.35.13,11.48.07,2.07,0,4-.06,5.37-.11a15.48,15.48,0,0,0,2.31-.14c3.8,0,.88.18,3.22.28,5.17.14,13-.31,15.73-.07a18.9,18.9,0,0,1-2.4.09c3.37-.11,15.7,0,12.47-.24,9.16.13,17.53-.13,24.83,0,4.77-.31,15.69.15,17.2-.29-.66.45,16.06.36,21.85.15-1.94.14,5,.14,2.77.33,6.61,0,12.67-.09,11.51-.32,12.18.54,24.48-.44,31.34.26,19.63-.25,37.81-.41,55.47-.52-.64.46-19.53,0-18.77.52l21.57-.34,10.09-.12,5.45,0,5.86,0c1,0,.56.08.07.13l-3.89.14,4.26-.05c0,7,0,13.78,0,20.39,0,7,0,13.75.12,20.38a8.67,8.67,0,0,1-.06-1L413.54,40c0,2.94-.07,6.83.14,6.5l-.06-2.86c.3-4.69.62,11.66.78,12.18-.59-5-.15,14.72-.89,6.8,0,1.93.14,4.36.27,3.91,0,2.87-.12,3.78-.27.87.11,10.52.33,6.78.32,16.31-.1,0-.14-2-.25-2.94.19,4.82.38,9.67.3,17.72-.06-.48-.14.45-.14-2,0,13.83.52,23.57.33,38.74-.43-4.48-.14,5.15-.51,6l.11,8.16.18-3.28c0,7.15.27,13.46.14,19.6l-.15-5.31.07,13.39.14-7.57c.19,7.23.47-.78.37,8.73,0-1.93,0,7.15-.22,10.87v0c.12,3.53.25,7.17.16,12.45-.12,1.38-.42-1.1-.5-.21.32,3.49.09,16.74.42,21.15-.08-1.47-.27-1.55-.31-1.06l.25,2.92c-.08,3.31-.12,3.8-.27,3.26-.05,10,.47-3.16.27,8.65,0-.92-.06-.48-.1-2.41-.11,11.87.16,22.93,0,33.83-.37,3.22-.09-9.53-.4-5.84.06,15.72.45,32.55.36,47.77l0-2.84c.53,2.11-.26,11.34,0,19,0-1.88-.3-2.47-.24-2-.08,10.42.13,21.3.3,37.09l-.14-2c-.12,6.14-.07,16.17-.13,22.8.14,2,.11,5.76.31,3.46-.77,20.45.42,39-.23,57.16,0-2.17-.12-5.17-.12-3.45l.13,15.46a49.54,49.54,0,0,0,.32-5.27c.13,1.95.24,6.32.24,10.15-.15-6.95-.37.06-.5,3.06.07-.5.15.53.22.27-.41,8.08.47,1.36.19,12.38l-.12-.58c.06,4.12.22,7.92.19,12.37-.27,1.85-.13-4.39-.35-4.67,0,6.25.51,12.33.24,18,0-2.65-.1-6.47-.15-9.12-.31,6.16-.23,6.87-.28,11.45v-.45l-.15,10.58.09-2.7c.69,7.83.13,15.93.58,26.46-.43-10.24-.25-1.69-.55-2.47-.09,2.69-.18,6.78-.26,5.61.24,5-.2,8.31.16,15.34-.1.31,0,5.33-.25,4.2.07,6.48.17-1.53.29-1,.33,10-.41,23.45.05,37.81.19,12.37.52,14.66.68,26.15-.15,3.87-.35-3.18-.35-3.18-.15,6.26-.12,11,0,16.85-.08-1.19-.16,0-.27,1.84,0,4.73.36,3.16.22,9.4-.11-1.07-.29-2.45-.4-4.73.12,5.58.24,11.08.36,16.85-.17,1.53-.25-3.48-.36-5.52.07,6.49.15,16.8.42,18.81l.09-4.16c0,2.36-.23,1.21-.28-.53-.21-5.56.1-8,.2-8.33l.06,4.11c.57-4.22-.09-16.5-.06-24.77l.41,3.44-.34-8.48c.11-1.8.34-3,.4,1.05.21-5.93-.15-5.25.08-10.35,0-.56.06-.31.08.21l-.13-5.79c.09,1.14.3-1,.24,2.6.24-10.4-.32-16.77,0-20.69l0,.87c-.14-14.43-.3-1.39-.66-12.22l.75-7.28-.3-1.42c0-1.49,0-4.43.15-3.89-.2-5.54-.13,1-.33-2.27.28-7.16-.13-19.75.36-21.37-.23-2.57-.18,6.85-.34-.79.52-2.19-.09-8.85.15-15.39.27,2,.13,8.21.37,1.66-.46-4,.1-12.75,0-18.27-.36-.25-.15-12-.27-21.26.12.58.2-17.44.33-26l.06.25c-.37-1.67-.3-10.56-.37-17,.22.25.3,1.42.4,4.92v-6.08c-.12-1.44-.18-3.33-.22-7.28l.27,1.53c0-8.1-.32-16.31-.14-26.73-.25-.59-.71,8.29-.88-2.73.14-.41.37-.82.43,2.07,0-.95-.11-3.37-.05-5.28l.23,4.41c.1-4.75-.2-2.49-.17-6.28.19.08.14-2.81.29-2.26,0,1-.08,3.31,0,4.76,0-4.28.15-9.45.3-11.16-.11.37-.27,0-.29-3.13,0-8.1.24-2.78.34-7.5-.14-2,0-7.13-.29-7.26a25.84,25.84,0,0,1,.22-3.73c-.13-4.19,0-19.57-.35-14.85l0,1.07,0-.68v0c-.29-13.74.17-28.54,0-42.17l.1,0c-.11-8.14-.06-18.11-.28-23.92,0-2.41.18-5.68.3-4.65-.07-6.22-.18-6.92,0-15.91.17,6.26.15-2.15.12,6.41.09-8.08.25-9.91,0-18.59.25,3,.32-6.08.24-9.92l-.18,5.66c0-4.32,0-8.1,0-11.93l.33,2.07c.4-16.54-.69-29.83,0-42.42-.23-4.37-.17,9-.44,5.07.05-7.6.52-15.53.53-17.91.18-10.42-.49-9.73-.36-20.63-.12,1.39-.44,2.71-.55-5.44,0-7.62.5-9.36.59-4.55a16.38,16.38,0,0,1-.07,2.63c.05,2.46.1,5.68.23,2.67l-.12-1c.12-3.78.11-14.25.3-11.79-.11-5.75-.19-2.46-.26,1.8.18-9.76,0-15.25.13-25.3-.07,1.59-.21,3.07-.21,1.47.15-14.74-.22-6.49-.28-16.48.19-5.67.44,2,.28-8,.13-6.14.32-1.3.42,1.14-.23-9.16.15-17.12.19-22.35l.09,4.83c-.05-2.89-.05-5.25-.05-7.66l-.24,2.76c0-2.84.05-5.24.14-5.18-.15-2.92-.39,2.23-.6-3.56.12-3.78-.13-11.5.18-12.81-.11,11.88.32-1.31.37,8.74,0-1.94,0-4.3,0-7.14,0-.43.07.4.09,1.17.28-11.36-.36-5.22-.35-17,.18,1.49.34-2.73.3-4.66,0,4.75-.3,2.27-.43-2.08.13-7.56-.11-8.21-.09-12.17l-.07,4.52c-.17-1.53-.15-5.31-.21-10.58.14-.45.1,4.79.16,2.91-.31-5.85.32-13.22.11-21.37.12-3.78.34-.36.42-3.68-.05-1.93-.07-3.49-.07-4.84l.05-4.74L410,0c-1.72,0-3.75,0-6.52,0,2.76.23,3.25.18-3.51.41L415.62.3l0,1.89,0-1.86-3.22.08-2.25.07-4.48.16,4.64,0,5.09-.06c0,1.07,0,2.06,0,3V5.25l-.11-2.82c0-.84,0-1.27-.06-1.39s0,.07-.06.48l-.1,1.68,0-1.15,0-1.27-2.73,0h-2.22l-4.51.07c-3.06.06-6.23.12-9.63,0l.23-.59C385,0,376.14.54,361.43.39l4.73.11c-2,.23-9.08,0-13.85.12.44-.19-2.53-.27-4.57-.39.25.15-10.77,0-12.1.38L329.07.35c-11.88-.1-13.56.56-25,.5,3.44-.22-1.75-.36,5.9-.51-3.82,0-7.24,0-7.31.1-2.22-.13-10.57.26-14.07.08a58.67,58.67,0,0,1-6.42.27c-.47,0,0-.09,0-.09s-6.7.13-3,.35c-11.75-.62-32.83,0-43.06-.49l-25.9.15a4.09,4.09,0,0,1,1.45-.08c-10.42-.18-6.41.57-18.26.36C187.42.67,199.77.82,196,.7c-1.65-.65-14.32.09-22.3-.29l1.94,0c-6.1-.22-14.89.24-24.85.2,0,0,.48-.06.05-.1C144,.8,131.13.91,121.54,1c3-.25,4.35-.13,2.53-.39-4.29,0,1.26.42-7.32.49C114,1,107.78.84,107,.56h8.09C110.9.19,104.57.56,100.31.5l.54-.16C88.45.39,88.28.78,75,.76l1.38.11C69.05,1.26,70.22.66,63,.94L60.76.55C56,.64,43.92.93,35.3,1c4.89-.3,15-.45,21.21-.62-4.76,0-16.19,0-18.67.22,1.92,0,4.34-.13,6.24-.07C38.23.85,30.54,1,21.05,1c.55-.26-1.91-.36-5.7-.41L.82.51C.81,2.06.8,3.58.79,5c0,1.2,0,2.34-.06,3.4,0,2.11-.11,3.89-.21,5.08C.8,30.3.4,46.83.44,66.39c.6-6.94,0,5.71.63,4.51,0,4.56,0,6.3,0,6.7L.69,91.42C.52,94.69.56,87.08.42,87.5c0,10-.26,4.19-.42,10.79.22-1.35.31,3.47.23,9.16l.28-8c.33,13.94-.51,12-.19,26.1L.13,121.1c.11,7.21,0,26.61.49,33.68-.07,1.27-.24,3-.29-.22-.07,17.24.53,38.37.22,51.77L.4,205c0,3.22.29,5.6.13,9.63-.06-.21-.14-1.3-.15.19,0,1.7.26,8.54.17,12.8L.38,224c-.19,16.81.41,25.8.52,39.9-.44,0-.59,13.2-.66,19.8l-.06-.23c-.06,19.58.36,33.25.54,51.38C.24,346.11.52,373,.25,391.06c.08-2.76.34.45.39,3.67-.09,4.24.3,11.73-.1,11.06v-1.51C.15,407.47.25,416.2.24,423l.53,1.12C0,442,1.05,470.81.37,480.53c.08,4.3.18,9.63.26,13.89l-.28-.23C.27,506.1.24,512.05.3,526.77l-.2-3c0,8.31.82,10.49.84,18.15l-.43,2.3c0,14.49-.36,29.16,0,43.47a12.18,12.18,0,0,1-.2-3c0,6.82-.29,26.38.29,23.9-.18.09-.19,3.82-.13,8.52s.19,10.34.26,14.25l-.27-1.21c.35,6.6.45,6.81.55,16,0,2.18-.23,1.91-.15-1-.15,7.28.26,5.67.11,14.5l-.18-3.29c0,7.5.08,6.9.28,11,.12,4.71-.07,14.21-.32,15.32a84.4,84.4,0,0,1,.29,9.53c-.1.59-.16-1-.18-1.82,0,2.12,0,4.06-.05,5.85,0,2.07,0,4,0,5.74l9.11-.13c2.62,0,5.2,0,8,.07a5.5,5.5,0,0,0,1.46.17l-17.71,0s.15.07.46.09l1.19.08,2.06.13c1.21.08,1.62.18-1.58.36,6.46-.19,17.49-.61,25.33-.49.38,0,.75.05,1,.09l-.81,0c1.81,0,3.43,0,4.95,0,2.5,0,4.09.08,6.49.08.93.21,9.22.12,13.23.13-.33-.28,4.92-.24,0-.47.64,0-.76,0-3.42,0l-1.71,0,.27,0-10,0c3.16-.15,6.47-.27,10.91-.11l5.59-.45c5.49.39,16.07.6,17.54.84,12.24-.16,28.84-.1,36.54-.63a34.83,34.83,0,0,1,5.3.23c-2,.06-4.4.05-5.49.13,7-.14,20.62-.06,22.28-.43,8.77.17-4.93.34,7.12.28l-1.62.12c23.71.59,38.55-.95,64.83-.19-1.82-.05-2.73-.07-3.1-.13,30,.34,61.76-.31,91.33.22,8.41.1,9.32-.13,14.45-.31l1.82.3,8.77-.35c12.44-.25,21.54.74,37.29.26l-2-.2c5.65,0,17.91-.12,17,.11a27.82,27.82,0,0,1,4.06-.1l.18.15,13.89-.27c10.77.12-1.69.63,14,.66,5.84-.06,16.64-.46,14.44-.56a49.6,49.6,0,0,1-6.2-.26l5.34-.08c1-.47,5.08-.95-8-1.27l-9.14.28-2.95-.22,7.69,0a97.68,97.68,0,0,0-10.22.11,31.46,31.46,0,0,0-3.83-.25l-9,.44c-1.08-.18,4-.36-2-.46-4.21.21,4,.41-2.93.55a55,55,0,0,0-8.23-.21c-.72-.12.37-.19,2.4-.25-4.57.15-12.09.07-14.45.31-4.55-.26-15.42.07-15-.37-1.44.11-8.05.35-12.24.36,7.66-.52-15.71,0-13.68-.59-5.67.47-20.49.21-30.54.47.56,0,1.66-.11,2.55-.09-5.66,0-7.3-.18-10.93-.27-.73.39-9.54.48-14.29.72-6.93-.38,4.21-.46,2-.82.35.32-12,.32-9.69.58a65.29,65.29,0,0,1-7.3-.44c-.93.49-4.94.09-9.33.39-7.68-.24-2-.46-10.41-.31C220.09,699.89,227.59,699.71,227.59,699.71Zm-200.46.85h4.14Zm-16.85,0,7.31,0c.59.09-.05.19-1.75.19C16.76,700.7,12.79,700.65,10.28,700.56Zm35.63,2a29.35,29.35,0,0,1-3.92-.07l4.66,0,.32,0A5.93,5.93,0,0,1,45.91,702.51Z"/><path class="cls-1" d="M50.71,702.14l1.1,0-1.59-.06-.95.09Z"/><path class="cls-1" d="M415,366.3v-.36c0,.3,0,.57,0,.75Z"/><polygon class="cls-1" points="2.9 477.36 2.83 477.38 2.89 478.85 2.9 477.36"/><path class="cls-1" d="M414.07,459.08c0,.18-.05.53-.07,1.22C414,460.24,414,459.72,414.07,459.08Z"/><path class="cls-1" d="M414,499.16l-.1,5.67Z"/><path class="cls-1" d="M413.87,530a2.47,2.47,0,0,0,.12.61v-.06Z"/><path class="cls-1" d="M413.54,40V38.84C413.47,36.05,413.49,37.94,413.54,40Z"/><path class="cls-1" d="M414.19,185.83c0-1.55-.08-3.07-.13-4.69A25.72,25.72,0,0,0,414.19,185.83Z"/><path class="cls-1" d="M290.52,2.73h0Z"/><path class="cls-1" d="M414.07,174.36c-.06,2.6-.05,4.77,0,6.78C414.08,179,414.11,176.51,414.07,174.36Z"/><path class="cls-1" d="M413.74,663.53V665s0,.06,0,.17Z"/><path class="cls-1" d="M413.77,665.19l0,1.65A16.32,16.32,0,0,0,413.77,665.19Z"/><path class="cls-1" d="M413.88,670.31l-.07-3.47C413.81,668,413.8,669.52,413.88,670.31Z"/><path class="cls-1" d="M413.87,622.74l-.1-.47A1,1,0,0,0,413.87,622.74Z"/><path class="cls-1" d="M413.84,610.34c0,3-.22,7.42-.15,11.55l.08.38C413.62,620.33,414,613.15,413.84,610.34Z"/><path class="cls-1" d="M415.1,558.6,415,569c.11-1.82.25-4.21.28.52C415.62,556.41,415.06,572.21,415.1,558.6Z"/><path class="cls-1" d="M415.26,526.39c.05,5.58.16-.06.22.23C415.38,523.08,415.35,522.22,415.26,526.39Z"/><path class="cls-1" d="M415.26,293.63l.26.56C415.48,289.89,415.42,294.15,415.26,293.63Z"/><polygon class="cls-1" points="413.94 249.13 413.78 253.32 414.01 255.31 413.94 249.13"/><polygon class="cls-1" points="415.76 222.85 415.8 224.72 415.7 217.55 415.76 222.85"/><path class="cls-1" d="M245.23.26l1.3.31C249.44.52,250.05.16,245.23.26Z"/><path class="cls-1" d="M76.47.58A93,93,0,0,0,67,.47C70.75.5,74.53.62,76.47.58Z"/><polygon class="cls-1" points="0.37 432.6 0.27 429.2 0.36 435.6 0.37 432.6"/></g></g></svg>