<svg xmlns="http://www.w3.org/2000/svg" viewBox="0 0 107.11 18.01"><defs><style>.cls-1{fill:#fff;}</style></defs><title>line</title><g id="Capa_2" data-name="Capa 2"><g id="index.html"><rect class="cls-1" x="3.23" y="2.97" width="103" height="12" rx="6"/><path class="cls-1" d="M100.23,13.64c-.12.17,0,.57.23.48.05-.23.1-.45.14-.67Z"/><path class="cls-1" d="M102.29,14.49a1.32,1.32,0,0,0-.15-1.56c0,.71-.15.47-.24,1.31a.36.36,0,0,1-.54-.32c-.07.2-.43-.08-.53.36a.76.76,0,0,0,1.32-.21C102.31,14.17,102.27,14.37,102.29,14.49Z"/><path class="cls-1" d="M85.77,2.05l.2.08A.33.33,0,0,0,85.77,2.05Z"/><path class="cls-1" d="M66.47,1.68c.15,0,.21-.08.22-.14S66.44,1.63,66.47,1.68Z"/><path class="cls-1" d="M63.17,1l.2.05C63.29.94,63.22.9,63.17,1Z"/><path class="cls-1" d="M85.77,2.05l-.51-.21C85.22,2.05,85.52,2,85.77,2.05Z"/><path class="cls-1" d="M104,11a.41.41,0,0,0,0,.26,1.42,1.42,0,0,1,0-.2Z"/><path class="cls-1" d="M94.28,1.51h.16a1.69,1.69,0,0,0,.13-.27Z"/><path class="cls-1" d="M101,1.45c-.18,0-.29.52-.36.76a.57.57,0,0,1,.4-.36A.84.84,0,0,0,101,1.45Z"/><path class="cls-1" d="M106.59,10.62l0,.22C106.6,10.78,106.6,10.69,106.59,10.62Z"/><path class="cls-1" d="M89.61,1.39a.6.6,0,0,0-.06-.2A.39.39,0,0,0,89.61,1.39Z"/><path class="cls-1" d="M92.66,12.33a.41.41,0,0,0,0,.11C92.7,12.38,92.71,12.34,92.66,12.33Z"/><path class="cls-1" d="M100.23,15.12l-.11,0c0,.11,0,.21,0,.31Z"/><path class="cls-1" d="M57.14.23h0C57.33.18,57.24.19,57.14.23Z"/><path class="cls-1" d="M1.35,6.29c.38-.32.41.07.48.38s.2.56.63.1c-.13,0-.25-.3-.41-.54S1.69,5.84,1.35,6.29Z"/><path class="cls-1" d="M104.12,11l.08-.18A.34.34,0,0,0,104.12,11Z"/><path class="cls-1" d="M2.46,6.77h0l.09-.09Z"/><path class="cls-1" d="M43.25.57a.56.56,0,0,0,.14.25A.53.53,0,0,0,43.25.57Z"/><path class="cls-1" d="M53.6,1.37l-.26-.07A.78.78,0,0,0,53.6,1.37Z"/><path class="cls-1" d="M37.87,1.36c-.14,0-.19-.12-.38,0l.06.07C37.62,1.31,37.71,1.28,37.87,1.36Z"/><path class="cls-1" d="M32.27,1.37a1.14,1.14,0,0,0,.11.11l.17,0Z"/><path class="cls-1" d="M75.65,12.61a1.5,1.5,0,0,1,.26.5C75.83,12.71,76.65,12.57,75.65,12.61Z"/><path class="cls-1" d="M104.29,11.17c-.12-.09-.17-.15-.17-.22l0,.13A.39.39,0,0,0,104.29,11.17Z"/><path class="cls-1" d="M37.64,5.8l-.89-.08A4.74,4.74,0,0,0,37.64,5.8Z"/><path class="cls-1" d="M35.51,12.69l.21-.07A.21.21,0,0,0,35.51,12.69Z"/><path class="cls-1" d="M34.12,5.8a1.29,1.29,0,0,0-.51-.39,1,1,0,0,0-.1.15Z"/><path class="cls-1" d="M75.91,13.12h0Z"/><path class="cls-1" d="M81.77,11.78c-.85,0-.4.72-.58,1.15-1,.21-.47-.55-.81-.92-.63.19-1.12.87-1.59.84,0-.12-.12-.16,0-.32-.66.59-2,0-2.76.77a.85.85,0,0,1-.1-.18,2.35,2.35,0,0,1,.12,1c-.38,0-.7.47-.84,0,.23,0,.25-.18.36-.33l-.4.21c-.36-.69.54-.24.54-.75-.77.22-1.68.8-2.27.6-.13-.68,1.39-.23.59-.83l.92.26c-.7-1.07.56.07-.08-1.07-1.21-.2-1.36.34-2.56.15-.28.37.09.55-.19.93-1.71.68-1.35-1.71-2.61-.8-.33.45-.45,1.31-1.35.86l.3-.77c-1.17-.08-.66,1.1-1.89.59.22-.31.92-.26.74-.35-.79-.61-.56.44-1.17.44L66,12.57c-1.25.1-2.62.59-4,.72.07-.2.31-.42,0-.63a13.32,13.32,0,0,1-5.4-.48l-.65.59c-.15,0-.27-.27-.11-.38-.66-.23,0,.37-.35.6-.37,0-.49-.34-.26-.51-1.15.49-3.29,1.07-4.51.44l.24-.18C50,12.51,49.87,14,49,13.4l.17-.1c-2.06-.26-4.34.28-5.91-.61-.3.85-2-.37-2.17.81-1.17-.59-.84-.8-2.49-1.19-.45-.06-.66.73-1.21.86v-.62l-.75.65-.39-.74-.51.16c.2,0,.43.27.4.45a1.89,1.89,0,0,1-2-.74l-1.9.52c0-.25.36-.33.61-.49-1,.63-.18-.65-1.11-.08.13.14-.06.37-.09.5a3.19,3.19,0,0,0-2.29-.22l.15-.43c-1.4-.11-3,.21-4.54.2a.51.51,0,0,1,0,1l-.18-.65c-.3.41.48.25-.13.74-.59-.07-.4-.74-.06-.95l-.72.22c0-.19.13-.29.17-.54-.29.4-1.23-.65-1.66,0l0-.2c-1.57,0-2.29.22-3.57.26,0,.56-.53.43-.91.89a13.59,13.59,0,0,0-3.13-.58c-.8.28-.24.48-.6.81,0-.51-1.19-.46-.6-.83a15,15,0,0,0-3.47.52c.19.21.4.3.29.48-.32.08-.71-.22-.67-.46L9.75,13a1.47,1.47,0,0,1-1.23,0,2.1,2.1,0,0,1-.87-.72c-.48-.6-.6-1.14-1.3-1.17h.07a4,4,0,0,1-1-.59c-.09-.49.46.11.63-.33a1.09,1.09,0,0,1-.58-1.22,2.43,2.43,0,0,0,.06-1.24c.83-.11,1-.51,1.28-1s.8-1,1.34-.65L8,5.84c.09-.4.32.09.47.15-.08-.26-.31-.26-.23-.47a2,2,0,0,1,.72-.23,3.91,3.91,0,0,1,.43,0H10c.83,0,1.67.13,2.51.24,1.69.22,3.39.54,5.06.7,1.22.09.69-1.84,2.23-1l-.44.66c2.46-.79,5,0,7.44-.65-.14.16-.15.35-.38.35.51.48,1.88,0,1.89-.37.37,0,.09.36.32.56.51.28,1.28-.62,1.55-.14,0,.08-.14.16-.24.19.34-.23,1.55.06,1.23-.49.91.26,1.73-.25,2.45.08.47-.62,1.55.3,1.7-.58-.06.91,1.59.73,2.16.31-.19.27.5.28.27.66.65,0,1.25-.18,1.14-.65,1.2,1.09,2.41-.87,3.09.52a45.22,45.22,0,0,1,5.47-1c-.06.91-1.92.09-1.85,1,1.66-.37,2.61-1.15,4.25-.93.42.13-.24.39-.38.55,1.65-.37,3.19.08,4.66-.41,0,.08-.16.17-.31.24.29,0,.67.13.64-.27L54.17,5c-.47-.6,1.15-1.25,1.2-1.56-.49,1.17,1.45.29.67,1.78a.56.56,0,0,0,.39-.55c.28.08.37.24.08.56,1-.23.67-.66,1.61-.65,0,.19-.19.27-.29.5a2,2,0,0,1,1.75-.6c0,.12,0,.27-.19.27,1.36-.06,2.32-1,3.82-.66-.44.87.51.29.59,1l.8-.22-.32-.36c.71,0,1.33-.53,1.94-.29l-.53.31L67,4.39l-.75-.28c.72-.39-.07-1,.87-.74-.19.07.7,0,1.07.45h0a1.25,1.25,0,0,1,1.23-.3c.13.24-.11.82,0,1,.34-.62,1.65-.17,2.08-.84a.8.8,0,0,0-.1.63l.29-.51c.32.17.37.25.32.56,1,.09-.31-.95.85-.54-.09,0,0,.12-.24.19,1.18.22,2.27-.32,3.34-.07.32.75-.94.18-.57.82,1.55-.14,3.21-.9,4.71-.73l-.28-.08c.21-1.06,1.12.53,1.88,0-.19.07-.24.58-.19.47,1,.17,2.1-.26,3.66-.6L85,4.1a13.84,13.84,0,0,0,2.25.27c.2-.27.57-.23.35-.63,2,1.56,3.85-.83,5.64.47-.22,0-.51.23-.34.23l1.52-.25c-.12-.46-.2-.28-.52-.64a1.34,1.34,0,0,1,1-.48c-.68.3,0,.74.31,1,0-.14,0-.3,0-.44.8.82.14-.93,1.22-.38l0,.24c.4-.12.78-.44,1.22-.37.18.53-.44.25-.46.69.61,0,1.21-1,1.77-.48-.26.15-.64.15-.9.3a1.36,1.36,0,0,0,1.13.56h0l1,.28-.27-.17c.41-.69.74-.76,1.13-.7a2.21,2.21,0,0,0,1.38-.06c-1.17.5-.3.42-.59,1,.15.22.34.51.19.64.26-.15.37,0,.47.15s.21.27.64.14c-.09.16.28.28-.11.59.44.18.16-.32.34-.48.53,0,.71.53.81,1A2,2,0,0,0,104.84,8c.53.87,1.2,1.12,1.34,2.3-.39.29-.63-.44-.65-.42a2,2,0,0,0-.44,1.41c-.11-.16-.29-.12-.55-.09-.13.35.5.59,0,.88a5.31,5.31,0,0,1-.45-.75,4,4,0,0,1-.29,1.49c-.32-.17-.14-.57-.22-.83-.19.47-.73,1.06-.63,1.6l.42,0c-.17.13-.34-.33-.29-.49.11-.59.62-.26.79-.15-.07.11-.12.23-.19.34.5.32.81,0,1-.45a9.59,9.59,0,0,1,.34-1.3,6.25,6.25,0,0,1,.56.69,5.64,5.64,0,0,0-.23-1c.25-.06.74,0,.69.42.61-.43-.06-.59.5-1,.09,0,.12,0,.14.06a3.55,3.55,0,0,0-.12-.65c.15.15.6,0,.42.36A1.54,1.54,0,0,0,107,8.91c-.16-.38-.28-.62,0-.88l.06.09c-.25-.79-.46-.76-.64-.71s-.43.16-.92-.21a7.94,7.94,0,0,0,1.11-1.26l-.62.13c0-.16-.17-.44.07-.52-.67-.29-.18.22-.69.14,0-.46-.34-.83-.65-1.13s-.57-.55-.36-1c-.49.21.35.71-.47.49.22-.49,0-.6-.33-.64s-.69,0-.91-.39c.4-.43.94.16.46-.61-.4.34-.68.16-1-.07a1.71,1.71,0,0,0-1-.5c0,.35-.4.41-.84.41a6.66,6.66,0,0,0-1.38.09c.06-.24-1.72-.4-2.57-.66l0-.12c-.16.73-1,.59-1.68.75A.82.82,0,0,1,95,1.51h-.6a1,1,0,0,1-.72.44l.15-.55c-.8,0-1.61.65-2.64.28,0,.52.82,1.43-.27,1.77,0-.28-.08-.75.21-.86-.1,0-.33.23-.52.11l.43-.47c-.47-.2-.24.39-.62.35,0-.4-.27-.28-.22-.6.1,0,.33.17.47,0a1.68,1.68,0,0,1-1.1-.6c0,.22,0,.53-.31.58-.8,0-.27-.47-.74-.68-.19.28-.7,0-.72.58-.23,0-.27-.27-.37-.44-.41.27-1.93.08-1.46.71l.1,0s0,0-.06,0h0c-1.36.58-2.82-.34-4.16-.09V1.93c-.81.22-1.79.13-2.36.55-.24,0-.56-.36-.46-.59-.62.15-.69.37-1.57,0,.62-.34-.21-.3.63-.25-.8-.17-1-.49-1.83.05.29-.5-.6-.63-1-.48l.56.36a4.22,4.22,0,0,1-1.18,0l.2-.67C73.27.12,72,2.31,70.72,1c-.44.47.88.33.5.87-.75-.09-1.54-1-1.77-1-1-.37-1,1-2,.72a.72.72,0,0,1-.53,1.09c-.76-.09-.93-1-.45-1.18.18,0,.26.05.26.13.24-.08.56-.19.26-.44l-.1.23c-.37-.24-1.4-.21-1.16-.6-.57.22-.24.39.18.51-1-.34-1.51,0-2.5-.24.16.13.3.41.14.41-1.45-.3-.64.45-1.62.55-.56-.36.2-.86-.79-.56-.61-.25-.13-.63.11-.82C60.3,1,59.52.28,59,.19L59.48,0a1.94,1.94,0,0,1-.76.11L59,.58C58.72.5,58.48.5,58.48.3c-.28.31.22.79-.35,1.22-.37-.24-1.13.26-1.26-.37,1.17.21-.13-.64.86-.74a1,1,0,0,1-.7,0c-.05-.07,0-.13.11-.17C56-.33,56.63,1,55.46.93A.46.46,0,0,0,55,.33c.47,0,.23.6-.2.87-.75-.28-.81.2-1.2.17L54,1.5c-.15.36-.52.31-1,.42,0-.28.47-.19.29-.31-.58.62-1.31-.65-2.11-.23-.37-.24,0-.66-.36-.83-.91.46-1-.48-1.93-.1.27.47.32.36-.35.82L50.1.94l-1,.69c.47,0,1-.3,1.28-.22-.48.39-.43.27-.21.67-.64-.72-1.27.42-2-.07l0-1.18c-1.12-.53-2,.61-3.44.31l.46.21c-.19.47-.89.06-1.36.25,0-.39-.25-.54-.45-.78,0,.29-1.07,0-1.2.76l-.65-.52c-1.17-.21-1.33,1.12-2.46,1,.34-.43-.17-.71.58-1-.38,0-.71-.07-.72.2-.22-.25-1,.53-1.39.16-.16.17-.21.59-.63.55a.23.23,0,0,1,0-.19c0,.19-.66.26-.29.7-1.16-1.23-3.24.09-4.25-1a24.19,24.19,0,0,1-2.56.29c.05-.12,0-.2.14-.16-1-.36-.63,1.14-1.8.73-.6-.64.62-.35.25-.59-.16-1.3-1.41.18-2.2-.58l.19-.08c-.6-.44-1.47.49-2.45.4a.23.23,0,0,0,0-.19,5.87,5.87,0,0,1-2.89,1.06c.3-.51.43-.27.25-.78-.42.07.13.83-.72,1-.28-.28-.89-.52-1-1.07l.8,0c-.41-.72-1,0-1.45-.1L19,1c-1.22.1-1.24.88-2.56.83l.14.23c-.72.78-.6-.43-1.32.14l-.22-.79a14.05,14.05,0,0,1-2.51.92,7.27,7.27,0,0,1,2.09-1.24c-.47,0-1.59.06-1.84.45.19-.07.43-.27.62-.15a2.94,2.94,0,0,1-2.28.92c.09-.77-.52-.87-1.24-.92-.36,0-.72-.05-1.19-.1A2,2,0,0,1,7.59.93c-1,.51-2,.88-3.06,1.45A6.41,6.41,0,0,0,1.9,5c.76-.11.66.07.53.3s-.25.59.34.77c-.15.52-.21.71-.31.73a7,7,0,0,0-1,1.51C1,8.69,1.2,7.69.94,7.7c-.16.67-.25.82-.42.9s-.37.1-.52.6c.45-.2.6.48.59,1.3A7.43,7.43,0,0,1,1,9.33a2.14,2.14,0,0,1,.08,1.78,1.67,1.67,0,0,0-.09.78,1.77,1.77,0,0,0,.56,1L1,12.47a12.49,12.49,0,0,0,1.44,2,2.73,2.73,0,0,0,2.2,1c.05.21.06.63-.35.44A5.7,5.7,0,0,0,7.84,17c.31,0,.62,0,.91,0l.75,0a2.28,2.28,0,0,1,1.12.16l-.13.3c.31-.09.55-.56.95-.26,0,.12-.13.3,0,.32s.84-.53,1.26-.35l-.36.33c1.66.39,2.55-.82,3.94-1,0,.88,1.3,1.16,1.95,1.31l0,.12c1.93.11,3.28-.73,5.07-1.07,1.11.95,3.76.4,5.55.93-.27-.16,0-.68.36-.77.42.18,1.16-.61,1.09.19h-.15c.32.79,1.18.58,1.85.6l.11-1c1.76,1.53,4.61-.57,5.57.81.42-.27,1-.26,1.37-.53l0,.57a12.41,12.41,0,0,0,3.21.08L42,18c.82,0,1-1.63,1.79-1.66l.22.84c1.43,0,2.88.73,4.29,0,0,.12-.06.36-.29.4.67,0,2.6.57,2.36-.59,0,.76,1.47.07,2.24-.26l-.12.56c.66-.71.68-.91,1.59-1.11.21.08.19.45-.1.31.72.29.56-.53,1.43-.23l-.32.35c.74.05.68-.14,1.08-.56a1.28,1.28,0,0,1,1.52.64.83.83,0,0,1,.94-.57c.06.19-.1.31-.18.37,1.23.38,1.84-.65,2.69-.1a.43.43,0,0,0,.14.33,9.6,9.6,0,0,1-1.7-.08c0,.51.79.6.16,1.31.64-.39,1.73-1.23,2.5-1a.45.45,0,0,1,.1.18l-.08.06a.6.6,0,0,0,.49-.09,2,2,0,0,0,.64.16c.1.42.91.23,1.31.25,0-.56.49-.47,0-.94.06,0-.07.07-.34.09a.67.67,0,0,0-.17.06l0-.05-1,0c.31-.29.64-.53,1.07-.21a10.15,10.15,0,0,1,.56-.91c.54.78,1.58,1.21,1.73,1.69,1.2-.32,2.84-.21,3.6-1.26.35-.14.4.3.53.46-.2.11-.44.09-.55.25.69-.27,2-.11,2.2-.85.87.34-.48.68.71.56l-.16.23c2.34,1.18,3.8-1.89,6.39-.37-.18-.1-.27-.14-.3-.26,3,.67,6.09-.63,9,.43.83.21.92-.26,1.43-.62l.18.61.86-.7c1.23-.51,2.13,1.48,3.68.52l-.2-.41c.56.08,1.77-.24,1.68.23,0-.07.18-.42.4-.21l0,.31,1.37-.54c1.06.23-.17,1.26,1.38,1.32.58-.12,1.64-.92,1.43-1.13-.24,0-.6-.2-.62-.52l.53-.16c.1-.93.5-1.89-.79-2.54l-.9.57-.29-.45.76,0c-.44-.42-.71,0-1,.21a.75.75,0,0,0-.38-.49l-.89.88c-.1-.36.4-.72-.19-.92-.42.41.39.82-.29,1.09-.44-.42-.31-.77-.82-.41a.4.4,0,0,1,.24-.5c-.45.29-1.19.13-1.42.62-.45-.52-1.53.14-1.48-.74a2.3,2.3,0,0,1-1.21.72c.76-1.05-1.55-.06-1.35-1.19-.56.95-2,.42-3,.95,0-.08.16-.23.25-.18-.56-.08-.72-.37-1.08-.55-.07.79-.94,1-1.41,1.45-.69-.76.41-.92.2-1.65,0,.64-1.19.64-1,1.17-.52-.47-.45-.23-.72-.88-.09,1-.48.17-.92.77-.76-.48-.19-.92-1-.62C81,12.13,81.77,11.78,81.77,11.78ZM62,13.48v0l.41,0Zm-1.66,0a5.32,5.32,0,0,0,.72,0c.06.19,0,.39-.17.38C61,13.76,60.57,13.65,60.32,13.48Zm3.52,3.9c-.26.08-.35,0-.39-.15a3.23,3.23,0,0,0,.46-.06l0-.07A.71.71,0,0,1,63.84,17.38Z"/><path class="cls-1" d="M64.31,16.64l.11,0a.61.61,0,0,0-.16-.12l-.09.17Z"/><path class="cls-1" d="M86,2.14h0a.2.2,0,0,1,.08.08A.17.17,0,0,1,86,2.14Z"/><polygon class="cls-1" points="37.37 12.41 37.37 12.55 37.51 12.43 37.37 12.41"/><path class="cls-1" d="M95.17,4.07a.22.22,0,0,0,.12.14A.36.36,0,0,0,95.17,4.07Z"/><path class="cls-1" d="M99.12,4.19l.56.2A3.58,3.58,0,0,0,99.12,4.19Z"/><path class="cls-1" d="M101.65,4.71a1.72,1.72,0,0,0,.12-.21h0Z"/><path class="cls-1" d="M53.81,5.13a.53.53,0,0,0-.12,0C53.42,5.27,53.6,5.22,53.81,5.13Z"/><path class="cls-1" d="M68.2,3.82a2.75,2.75,0,0,1-.47.26C68,4.13,68.19,4.14,68.2,3.82Z"/><path class="cls-1" d="M37.74,5.81h0Z"/><path class="cls-1" d="M67.07,4.08a.8.8,0,0,0,.66,0A1.23,1.23,0,0,0,67.07,4.08Z"/><path class="cls-1" d="M102.7,12.42l-.1.05a.59.59,0,0,1,0,.08Z"/><path class="cls-1" d="M102.64,12.55l-.06.12S102.66,12.61,102.64,12.55Z"/><path class="cls-1" d="M102.43,12.92l.15-.25C102.5,12.71,102.4,12.75,102.43,12.92Z"/><path class="cls-1" d="M104.56,10.21l-.19-.09A.56.56,0,0,0,104.56,10.21Z"/><path class="cls-1" d="M104.66,9.3c-.07.23-.49.47-.44.75l.15.07C104.11,9.94,105,9.57,104.66,9.3Z"/><path class="cls-1" d="M105.19,4.09a7.08,7.08,0,0,1,.63,1c.06-.29.11-.7.49-.27-.21-.84-.27-.7-.37-.52S105.69,4.69,105.19,4.09Z"/><path class="cls-1" d="M102.12,2c.68.07.09-.31.15-.42C101.78,1.61,101.69,1.64,102.12,2Z"/><path class="cls-1" d="M78.84,1.69l0-.51C78.47,1.25,78.89,1.38,78.84,1.69Z"/><polygon class="cls-1" points="74.44 4.33 74.86 4.65 75.06 4.18 74.44 4.33"/><polygon class="cls-1" points="71.85 0.69 72.04 0.62 71.33 0.8 71.85 0.69"/><path class="cls-1" d="M33.27.87l.13.63C33.68,1.39,33.75.68,33.27.87Z"/><path class="cls-1" d="M16.61,1.51C16.43,1.2,16,1,15.68,1.3,16.05,1.35,16.42,1.59,16.61,1.51Z"/><polygon class="cls-1" points="32.95 17.46 32.61 17.67 33.24 17.5 32.95 17.46"/></g></g></svg>