<svg xmlns="http://www.w3.org/2000/svg" viewBox="0 0 1252.14 125.93"><defs><style>.cls-1{fill:#fff;}</style></defs><title>menuHover_1</title><g id="Capa_2" data-name="Capa 2"><g id="Menu"><path class="cls-1" d="M21.17,59.2a2.55,2.55,0,0,1,.42-4.71c3.11-.93,7.14-2.17,11-3.43a5.55,5.55,0,0,0,1.61-9.7c-2.08-1.6-1.87-3.9-3.19-4.57-10.82-5.47-12.69-4.46-5.82-9.47,2.68,3.87-7.15-4.67-6-3,2.18-1.05-21.17-3-19-4C-1,16.44,52.88,22,51.5,17.4h0a2.41,2.41,0,0,0,0-4.73L29.33,8.15A2,2,0,0,1,29,4.43a18.54,18.54,0,0,1,6.54-1.57c21.08-.4,41.84.45,63.06,1.76,34.86,2.14,71.07-.57,106.72-1,19.78-.24,39.59-.15,59.38,0,43.77.42,87.53,1,131.29,1.49,17.53.17,35.08,0,52.61.08,86.31.34,172.61.83,258.92,1,41.46.1,83,.21,124.39-.66,39.4-.83,78.64-3.22,118-4.35,27.41-.78,55-.89,82.42-.73,12,.07,23.83,2.07,35.8,2.24,6.8.09,16.92,4.15,21.16-2.29.33-.49,5.47-.52,8.32-.43,27.26.89,54.69,1.26,81.69,3,14.85,1,33.69,2.52,42,7.15,6.91,3.86,17.06,4.41,21.91,8.07,1.94,1.46.88,5.69-1,6-20.12,3.62-9,6.94,1.17,10.22-6.55,4.56-8.49,7.52,2.9,11.81,14.87,5.61-1.79,8.51-12.63,11.89,15.64,2.89,23.2,5.83,13.76,13.84-2.89,2.45-2.61,7.93-6.68,11.81-.85.81-.65,2.7.4,3,16.67,4.19,4.62,10.72,5.82,16.08.24,1.06-5.89,2.64-9.53,3.62-5.83,1.57-12,2.84-20.08,4.7,11.42,3.21,29.67,1.37,29.88,10.65l-10.75-.3c-14.11-.42-28.22-.89-42.35-1.2a13.71,13.71,0,0,0-5.87,1.18c-6.43,3.76-6.3,3.8-15.94,3.44l4.51-3.1c-29,0-58.07.08-87.13,0-42.73-.15-85.46-.74-128.17-.52-13.57.07-27,2.59-40.65,3.08-7.42.26-15.19-2.12-22.74-2-21,.19-42,1.43-63,1.55-45.93.26-91.88-.14-137.81.13-54.32.32-108.63,1.19-163,1.44-5.79,0-33.31-2.58-34.41-2.44-7.73.94-15.59,2.39-23.4,2.38-80.77-.11-161.53-.68-242.3-.68-46.94,0-93.88,1-140.83,1.16-8.75,0-17.53-1.42-26-1.61H24.51a4.41,4.41,0,0,1-4.37-3.89v0c9.72-.33,5.91-6.69,2.7-10.53a1.66,1.66,0,0,1,1.23-2.73c.5,0,1,0,1.56-.07,2-.14,4.09-2,3.39-4-.35-1,6.13-2.77,5.87-3.89-.41-1.83-3-2.24-4.06-3.8C25.6,87.58,16.8,81.93,11,78.8a3.83,3.83,0,0,1-.14-6.7c5.32-3.09,13.77-6.6,22.62-4.84,5.35,1.06,6.68.06,6.68.06,1-1-.59-2.72-2-3C37.32,64.15,24.83,61.09,21.17,59.2Z"/></g></g></svg>