<svg xmlns="http://www.w3.org/2000/svg" viewBox="0 0 1363.81 137.42"><defs><style>.cls-1{fill:#fff;}</style></defs><title>menuHover</title><g id="Capa_2" data-name="Capa 2"><g id="Menu"><rect class="cls-1" x="5.97" y="5.95" width="1356" height="125"/><path class="cls-1" d="M1359.3,131c.35,1.55,1.13.67,1-3.62l-1.33-3Z"/><path class="cls-1" d="M1361.76,102c-.64-5.05-1.77-10.88-3-7.6,1.27,5,.74,6.21,2.26,11.6.15,4.3-.43,7.5-.91,6.78.34,1.52-.3,6.67.54,9a71.55,71.55,0,0,0,.22-20.08C1361.17,100.14,1361.51,101.68,1361.76,102Z"/><path class="cls-1" d="M1038,4.09l2.71.16C1040,4.16,1039.05,4.12,1038,4.09Z"/><path class="cls-1" d="M777.75,3.37a8.35,8.35,0,0,0,2.91-.29C778.82,3.17,777.31,3.25,777.75,3.37Z"/><path class="cls-1" d="M733.32,1.91l2.62.09A11,11,0,0,0,733.32,1.91Z"/><path class="cls-1" d="M1038,4.09l-7-.41C1030.57,4.11,1034.62,4,1038,4.09Z"/><path class="cls-1" d="M1358.56,44.12c.07,1.45.19,2.67.35,3.77-.05-1.19-.09-2.35-.14-3.54A1.64,1.64,0,0,1,1358.56,44.12Z"/><path class="cls-1" d="M1152.74,3h2.11a15.86,15.86,0,0,0,1.76-.54Z"/><path class="cls-1" d="M1240.79,2.82c-2,0-2.69,1.07-3.45,1.56a13.67,13.67,0,0,1,4.34-.77C1241.72,3.4,1241.45,3.14,1240.79,2.82Z"/><path class="cls-1" d="M1363.12,24.38l.16,2.48C1363.24,26.22,1363.17,25.13,1363.12,24.38Z"/><path class="cls-1" d="M1089.72,2.78a1.72,1.72,0,0,0-.8-.41C1088.92,2.52,1089.23,2.65,1089.72,2.78Z"/><path class="cls-1" d="M1259.9,125.67c-.07.08,0,.13,0,.2C1260.42,125.76,1260.58,125.68,1259.9,125.67Z"/><path class="cls-1" d="M1362,131.24l-1.42.06a1.22,1.22,0,0,0-.3.63Z"/><path class="cls-1" d="M652,.47l.36,0C654.5.36,653.28.38,652,.47Z"/><path class="cls-1" d="M1.31,106.46c1-8.45,1.29,13.77,2.41,1C3.28,108.68,2,95.92,1.31,106.46Z"/><path class="cls-1" d="M1358.71,41.84c0-1.19,0-2.4,0-3.61C1358.66,39.87,1358.67,41,1358.71,41.84Z"/><path class="cls-1" d="M3.72,107.49h0l.11-1.31Z"/><path class="cls-1" d="M464.62,1.14a8.09,8.09,0,0,0,1.91.49C466.47,1.52,466,1.38,464.62,1.14Z"/><path class="cls-1" d="M604.21,2.74l-3.45-.15C602.13,2.69,603.24,2.73,604.21,2.74Z"/><path class="cls-1" d="M392.14,2.73a33.79,33.79,0,0,0-5.08-.09,6.9,6.9,0,0,0,.78.14A16.71,16.71,0,0,1,392.14,2.73Z"/><path class="cls-1" d="M316.71,2.74c.4.08.92.15,1.39.22l2.39-.06Z"/><path class="cls-1" d="M1030.64,126.21a16.79,16.79,0,0,1,3.49,1C1033,126.42,1044.05,126.14,1030.64,126.21Z"/><path class="cls-1" d="M1359.2,44.08a4.53,4.53,0,0,1-.49-2.24c0,.86,0,1.69.06,2.51C1358.94,44.57,1359.1,44.61,1359.2,44.08Z"/><path class="cls-1" d="M389.08,11.6l-12-.17C380.44,11.54,384.8,11.6,389.08,11.6Z"/><path class="cls-1" d="M489.45,126.37l2.75-.13A14.24,14.24,0,0,0,489.45,126.37Z"/><path class="cls-1" d="M341.52,11.6a56.52,56.52,0,0,0-6.75-.78,9.31,9.31,0,0,0-1.39.29Z"/><path class="cls-1" d="M1034.15,127.23s0,0,0,0S1034.13,127.23,1034.15,127.23Z"/><path class="cls-1" d="M1113.1,124.56c-11.42,0-5.37,1.45-7.79,2.3-13.63.42-6.31-1.09-11-1.85-8.51.39-15,1.75-21.38,1.69-.48-.24-1.71-.33-.26-.63-9,1.17-26.72.05-37.2,1.53a4.66,4.66,0,0,1-1.37-.37c1.7.74,2,1.5,1.61,2-5.12,0-9.5.93-11.43,0a13.84,13.84,0,0,0,4.87-.66l-5.36.42c-4.83-1.39,7.32-.49,7.32-1.51-10.46.45-22.65,1.6-30.67,1.21-1.67-1.36,18.75-.46,8-1.67l12.41.52c-9.48-2.14,7.53.15-1.18-2.14-16.32-.4-18.26.69-34.53.29-3.67.76,1.21,1.12-2.46,1.87-23.14,1.36-18.22-3.41-35.23-1.6-4.4.9-6.11,2.62-18.23,1.71l4.13-1.53c-15.8-.15-9,2.2-25.57,1.17,3-.6,12.42-.51,10-.69-10.72-1.21-7.58.87-15.82.87l-1.71-1.36c-16.82.21-35.36,1.2-54,1.45,1-.41,4.22-.83-.14-1.25-23.5.68-50.16-.17-72.83-1l-8.66,1.17c-2,0-3.74-.53-1.56-.76-8.83-.44-.45.75-4.7,1.21-5,.08-6.64-.68-3.45-1-15.59,1-44.41,2.15-60.84.89l3.21-.35c-12.8-.48-14.44,2.41-26.3,1.31l2.27-.21c-27.76-.51-58.43.57-79.61-1.2-4,1.69-27.48-.76-29.26,1.6-15.85-1.17-11.31-1.59-33.64-2.37-6-.11-8.88,1.47-16.26,1.71l-.18-1.23-10,1.29-5.33-1.47-6.91.32c2.75.07,5.85.55,5.43.91-10.8.55-26.32-.86-26.59-1.5l-25.55,1c.57-.5,4.85-.67,8.23-1-13.64,1.26-2.48-1.29-15-.14,1.67.28-.91.73-1.19,1-6.23-.74-20.41-.75-30.91-.43l2-.85c-18.95-.22-39.95.4-61.22.39,7.63.39,5.87,1.87-.36,2l-2.5-1.3c-4,.8,6.52.49-1.75,1.47-7.95-.15-5.34-1.48-.78-1.9l-9.66.45c-.57-.39,1.7-.6,2.29-1.09-4,.81-16.67-1.31-22.39.1l-.55-.39c-21.26,0-30.9.44-48.22.5-.34,1.13-7.11.88-12.27,1.79-12.73-.36-26.86-1.25-42.19-1.15-10.78.56-3.15.95-8,1.62-.8-1-16.11-.93-8.17-1.66-18.4.16-23.51.2-46.79,1,2.53.42,5.37.6,3.9,1-4.22.17-9.61-.43-9-.92l1.11-.1c-26.13,1.53-60.31-3-81.11-.86l1.16-.1-21.57,1.11c-9.93-.18,6-.77-1.39-1.4-6.67.49-12.53.68-17.95.72-2.71,0-5.31,0-7.85,0h-.94l-.33,0-.57,0-1.08-.06.07-1.66,0-2.06v-2.78c0-3.73-.13-7.57-.37-11.66,3-14.84-.22-52.65,1.71-72.68l-.71,1.16c-.7-5.17.41-6.26.57-10.07-.55.54-.64,5.61-1,2.4-.06-3.8-.11-7.63-.17-11.48,0-2.34,0-4.69-.05-7.07l9.31.05,14,.16L62,11.26c18.84.41,37.7.89,56.28,1.16,16.44.19,9.33-3.68,30.06-2l-5.88,1.32c33.17-1.59,67.84.05,100.32-1.29-1.94.3-2,.7-5.17.69,6.86,1,25.37.05,25.49-.73,5.06.09,1.17.7,4.29,1.1,6.88.57,17.27-1.22,20.93-.27.62.16-1.94.31-3.2.39,4.49-.47,20.9.12,16.6-1,12.19.53,23.32-.49,33,.16,6.34-1.24,20.87.6,22.89-1.15-.88,1.81,21.37,1.46,29.07.61-2.58.54,6.71.56,3.68,1.32,8.8,0,16.86-.36,15.33-1.29,16.2,2.16,32.57-1.74,41.69,1,26.13-1,50.31-1.63,73.81-2.05-.84,1.8-26,.18-25,2.07,22.3-.74,35.16-2.29,57.27-1.86,5.73.25-3.25.79-5.18,1.09,22.27-.74,43.07.17,62.89-.81a21.35,21.35,0,0,1-4.21.49c3.9-.06,9.08.26,8.64-.56l-3.81.22c-6.24-1.19,15.52-2.48,16.21-3.11-6.63,2.35,19.58.59,9,3.56,2.57-.16,5.8-.54,5.21-1.09,3.81.16,5,.48,1.15,1.1,14-.45,9-1.32,21.7-1.3,0,.4-2.6.55-3.91,1A136.6,136.6,0,0,1,684.86,8.9c-.65.23.6.55-2.6.54,18.4-.12,31.36-2.06,51.55-1.31-6,1.72,6.86.56,7.93,2.06l10.86-.45L748.24,9c9.51,0,17.91-1.06,26.08-.58l-7.06.62,17.81-.28L775,8.21c9.62-.77-1-1.89,11.62-1.47-2.57.15,9.52,0,14.47.89h0A97.12,97.12,0,0,1,817.62,7c1.83.48-1.47,1.65-.28,2,4.64-1.25,22.27-.34,28.14-1.67-2,.31-2.06,1.09-1.41,1.25l3.89-1c4.4.32,5,.48,4.33,1.1,13.25.19-4.2-1.89,11.52-1.07-1.24.08-.65.23-3.22.38,15.8.43,30.51-.64,45-.14,4.29,1.5-12.67.37-7.77,1.64C918.76,9.2,941.16,7.67,961.41,8l-3.78-.17c2.81-2.12,15.08,1,25.32,0-2.51.16-3.29,1.18-2.61.94,13.87.34,28.35-.52,49.36-1.19l-2.61.55c8.17.48,21.52.28,30.35.53,2.62-.55,7.67-.46,4.6-1.25,27.22,3.1,51.91-1.67,76.06.92-2.89,0-6.88.48-4.58.48l20.56-.5c-1.62-.93-2.69-.56-7-1.28a82.4,82.4,0,0,1,13.5-1c-9.25.62.08,1.49,4.08,2-.67-.28.7-.59.36-.88,10.74,1.65,1.8-1.86,16.47-.75l-.78.48c5.49-.24,10.55-.89,16.47-.75,2.46,1.07-5.84.5-6.22,1.38,8.32-.06,16.41-2,23.93-1-3.53.3-8.61.31-12.14.6,8.2,1.26,9.15.94,15.24,1.14l-.6,0,14.08.57-3.59-.34c10.41-2.79,21.19-.51,35.21-2.34-13.63,1.73-2.25,1-3.3,2.21,3.58.34,9,.72,7.47,1.06,6.63-1,11.07.77,20.41-.66.42.39,7.09,0,5.6,1,8.61-.31-2-.68-1.31-1.17,13.27-1.34,31.21,1.61,50.3-.22,4.64-.21,8.22-.46,11.31-.74l1.14-.1c.34,0,.79-.07,1-.11l1.67-.21,3.62-.42c.22,1.51.43,3.29.62,5.6s.37,5.19.51,8.52c-.62,5.16-1.42-4.22-1.42-4.22a164.48,164.48,0,0,0,0,22.42c-.34-1.58-.63.05-1.07,2.44.11,6.29,1.42,4.21.85,12.51a34.61,34.61,0,0,1-1.57-6.29c.36,7.42,1.09,14.74,1.44,22.42-.68,2-1-4.63-1.47-7.34.3,8.63.61,22.36,1.69,25l.38-5.53c0,3.14-.92,1.61-1.12-.71-.84-7.39.37-10.66.77-11.08l.25,5.47c2.28-5.62-.37-22-.24-33l1.67,4.59-1.39-11.29c.44-2.4,1.37-4,1.62,1.39.82-7.89-.6-7,.32-13.76.14-.75.22-.41.29.28l-.5-7.71c.35,1.52,1.18-1.28.94,3.46.19-2.78.26-5.34.25-7.7,0-3-.09-5.77-.2-8.13l-9.37.42a21.41,21.41,0,0,1-5.62-.38l1.16-.1c-19.2.56-1.86,1.22-16.26,2.66l-9.69-3-1.89,1.22c-2,0-5.89-.13-5.17-.62-7.37.84,1.26.53-3,1.32-9.54-1.11-26.29.52-28.44-1.43-3.42.93,9.12.72-1.06,1.37-2.9-2.1-11.76.35-20.47-.61,2.67-1.08,10.92-.5,2.21-1.47-5.26,1.83-17-.4-24.31-.05-.34,1.46-16,.61-28.3,1.09.78-.49-23.19-.8-34.66-1.32l.34-.25c-2.22,1.47-14,1.2-22.66,1.5.34-.88,1.88-1.23,6.55-1.62h-8.1c-1.91.47-4.43.72-9.68.88l2-1.09c-10.78.06-21.7,1.29-35.57.56-.78,1,11,2.85-3.63,3.53-.55-.55-1.09-1.5,2.75-1.73a45.88,45.88,0,0,1-7,.23l5.85-.93c-6.31-.41-3.3.78-8.35.69.1-.79-3.73-.57-3-1.19,1.29-.08,4.41.32,6.34,0-5.69-.14-12.58-.61-14.85-1.2.5.45,0,1.06-4.17,1.16-10.78.06-3.69-.95-10-1.35-2.61.54-9.49,0-9.67,1.16a12.21,12.21,0,0,1-5-.88c-5.58.52-26.06.15-19.77,1.41l1.43.08-.91,0h0c-18.28,1.17-38-.67-56.12-.16l0-.4c-10.82.45-24.1.27-31.83,1.12-3.2,0-7.56-.72-6.19-1.19-8.27.29-9.2.74-21.16.09,8.32-.69-2.87-.62,8.53-.51-10.75-.34-13.19-1-24.74.11,3.93-1-8.09-1.28-13.21-1l7.54.73c-5.75.15-10.77.06-15.88,0l2.76-1.33c-22-1.62-39.69,2.75-56.44,0-5.82.94,12,.66,6.75,1.75-10.13-.18-20.68-2.09-23.85-2.1C804,.82,805,3.5,790.46,3c1.85.47,3.6,1.74-7.24,2.18-10.13-.17-12.45-2-6.06-2.37,2.43,0,3.6.11,3.5.27,3.27-.17,7.57-.37,3.56-.89l-1.32.48c-5-.49-19-.44-15.69-1.22-7.65.46-3.27.78,2.4,1-13-.69-20.3,0-33.67-.48,2.12.26,4.08.82,2,.81-19.61-.59-8.63.9-21.93,1.11-7.55-.72,2.71-1.73-10.67-1.12-8.17-.49-1.73-1.26,1.52-1.65-12.19.92-22.78-.6-29.74-.77L683.5,0c-3.84.23-7,.22-10.19.22l3.67,1C673.21,1,670,1,670.09.6c-3.89.63,3,1.58-4.74,2.43-5-.48-15.31.52-17-.74,15.81.43-1.75-1.26,11.63-1.47a94.17,94.17,0,0,1-9.51,0c-.57-.14.54-.26,1.57-.33-15.13-1.13-7,1.42-22.63,1.39,2-.71-3.64-1.34-6.2-1.19,6.32,0,3,1.18-2.77,1.73-10-.56-10.92.41-16.19.34l6,.26c-2,.71-7.06.62-14.07.84-.6-.55,6.36-.38,3.86-.62-7.78,1.25-17.58-1.29-28.43-.45-5-.48-.48-1.34-4.9-1.66C554.52,2,553.52.13,540.74.9c3.68,1,4.32.72-4.68,1.65l21-.67L543.59,3.26c6.34,0,13.38-.6,17.18-.43-6.43.77-5.77.54-2.73,1.33-8.68-1.43-17.2.83-27.23-.13l.31-2.37c-15.08-1-26.79,1.22-46.37.62l6.29.41c-2.63.94-12.09.13-18.43.51.59-.79-3.37-1.07-6.08-1.57.33.59-14.33,0-16.11,1.53l-8.74-1c-15.81-.43-18,2.25-33.24,2,4.58-.86-2.33-1.42,7.85-2-5.07,0-9.63-.15-9.71.39-3-.49-14.07,1.07-18.74.32-2.14.34-2.84,1.17-8.53,1.1-.62-.16,0-.39,0-.39,0,.39-8.92.54-3.94,1.41C359.76,2.44,331.71,5.08,318.1,3c-11.07.27-24.42.52-34.47.58.65-.24,0-.39,1.93-.31-13.86-.74-8.52,2.26-24.3,1.44C253.2,3.4,269.64,4,264.61,3.5c-2.18-2.6-19,.36-29.66-1.16l2.57-.15c-8.11-.89-19.8,1-33.06.79,0,0,.64-.23.07-.39-9.07,1.33-26.23,1.77-39,2.13,4-1,5.79-.53,3.37-1.57-5.72.15,1.68,1.66-9.74,1.95-3.71-.56-11.94-1-13-2.14L156.9,2.9c-5.52-1.43-13.94,0-19.61-.2l.72-.63c-16.5.21-16.73,1.78-34.46,1.66l1.83.48c-9.69,1.55-8.12-.88-17.79.28L84.66,2.91c-6.39.38-22.4,1.53-33.87,1.82C57.29,3.56,70.71,3,79,2.27c-6.34,0-21.54.11-24.84.89a57.6,57.6,0,0,1,8.29-.29c-7.77,1.24-18,1.85-30.64,1.82.73-1-2.53-1.43-7.58-1.64-5.42-.2-10.44-.19-21.47-.3,0,2.52-.09,5-.13,7.37l0,1.78-.05,1.33c0,.75-.08,1.49-.12,2.19a40.63,40.63,0,0,1-.87,6.76c1.13,22.35-.48,44.33-.3,70.37,2.38-9.23.07,7.6,2.51,6,.16,6.06.12,8.38,0,8.92L3,116.66l-.36,4.59-.19,2.3,0,.57-.05.7-.09,1.81c-.36,3.55-.49,1.38-.61-1.84,0-.52,0-1.07-.08-1.6s-.07-1-.1-1.36c-.07-.8-.16-1.33-.3-1.19,0,1.25-.05,2.31-.07,3.22,0,1.42-.07,2.59-.1,3.58-.08,2.25-.17,3.68-.28,4.7-.21,2.05-.47,2.4-.73,4.77,1.2.18,3.31.35,7.59.51-.82-.22-.59-.41.36-.56a19.36,19.36,0,0,1,1.93-.2l1.32-.09,1.39-.06a89,89,0,0,1,9.61,0l-5.33-.56-2.67-.29c-.94-.09-1.52-.18-3.28-.28l1.44-.06.86-.05,1.56-.08c1-.05,1.94-.08,2.81-.1,1.74,0,3.24,0,4.57,0,2.67.11,4.68.37,6.69.63a76,76,0,0,0,17.43.39l-5.92.77c9.6-.46,35.41,0,44.82-1.95,1.69.28,3.94.95-.29,1.12,22.94.3,51.06-2.09,68.88-.88l-1.74.6c4.28-.17,7.45-1.12,12.81-.52-.28.25-1.72.6.26.63,2.26-.2,11.36-1,17-.7l-4.84.67c22.37.79,34.33-1.63,53.09-2,0,1.76,17.56,2.33,26.35,2.61l-.31.25c26.05.22,44.25-1.46,68.37-2.15,15,1.91,50.73.8,74.8,1.87-3.68-.31.6-1.37,4.88-1.54,5.64.35,15.61-1.23,14.71.39l-2,0c4.26,1.58,15.86,1.16,24.93,1.2l1.49-2.11c23.71,3.07,62.11-1.13,75.05,1.63,5.72-.53,12.81-.53,18.48-1.05l-.31,1.13c15.85.29,23.77.43,43.36.16l-4,.81c11.05.07,14-3.27,24.15-3.33l3.07,1.69c19.28,0,38.79,1.46,57.84-.08-.31.25-.88.74-4,.81,9.08,0,35.1,1.14,31.81-1.18.22,1.51,19.89.15,30.3-.52l-1.62,1.12c8.79-1.43,9.07-1.82,21.34-2.21,2.91.14,2.55.89-1.31.61,9.69.58,7.55-1.06,19.3-.47l-4.38.72c10,.08,9.18-.3,14.67-1.13,6.27-.45,18.92.28,20.39,1.29,1.34-.62,6.8-1.44,12.68-1.15.79.38-1.35.62-2.42.74,16.67.75,24.79-1.3,36.25-.21.24.37,1,.56,1.94.67-13.24,0-23.91-.09-22.91-.17,0,1,10.7,1.21,2.18,2.63,8.59-.78,23.28-2.46,33.71-2a7.67,7.67,0,0,1,1.38.36l-1.08.11a50.11,50.11,0,0,0,6.59-.16c3.33.17,5.44.29,8.64.31,1.23.85,12.26.46,17.6.5-.44-1.13,6.54-.95,0-1.87.85.08-1,.13-4.56.18-.8,0-1.74.05-2.27.11l.36-.1-13.26.08a56.59,56.59,0,0,1,14.52-.43c2.74-.72,5.75-1.46,7.45-1.81,7.3,1.57,21.37,2.41,23.33,3.38,16.29-.63,38.38-.42,48.62-2.53,4.63-.27,5.32.61,7,.94-2.67.21-5.85.18-7.3.48,9.26-.54,27.44-.21,29.65-1.68,11.67.66-6.56,1.35,9.48,1.11l-2.17.45c31.55,2.36,51.3-3.76,86.28-.74a17.17,17.17,0,0,1-4.13-.51c39.87,1.33,82.18-1.26,121.53.86,11.18.43,12.39-.52,19.22-1.23l2.42,1.21,11.68-1.4c16.55-1,28.66,3,49.61,1l-2.7-.82c7.52.16,23.84-.48,22.58.46a12.19,12.19,0,0,1,5.41-.42l.23.63,18.48-1.08c14.34.45-2.24,2.5,18.67,2.63,7.78-.25,22.14-1.84,19.22-2.26-3.14,0-8-.4-8.25-1l7.11-.33c1.29-1.86,6.76-3.77-10.69-5.07l-12.17,1.14-3.91-.91,10.23,0c-5.8-.85-9.49-.1-13.61.42a14.94,14.94,0,0,0-5.09-1l-11.94,1.78c-1.45-.73,5.35-1.45-2.66-1.85-5.59.83,5.36,1.63-3.9,2.18-5.82-.85-4.12-1.54-10.94-.82-1-.48.48-.78,3.19-1-6.08.57-16.09.24-19.23,1.23-6.06-1-20.52.27-19.92-1.49a130.26,130.26,0,0,1-16.29,1.46c10.2-2.11-20.9-.13-18.2-2.39-7.55,1.9-27.27.84-40.64,1.9a13.18,13.18,0,0,1,3.39-.36c-7.52-.16-9.71-.73-14.54-1.09-1,1.57-12.69,1.92-19,2.89-9.22-1.51,5.6-1.84,2.71-3.29.46,1.27-16,1.27-12.89,2.32-7.06-.93-6.08-.45-9.72-1.75-1.23,2-6.57.33-12.42,1.54-10.21-1-2.63-1.84-13.84-1.24C1103.12,125.26,1113.1,124.56,1113.1,124.56ZM846.36,128v0l5.5-.06Zm-22.42,0c2.73,0,6.13.05,9.72,0,.79.39-.06.79-2.32.77C832.57,128.52,827.28,128.3,823.94,128Zm47.42,7.79c-3.55.16-4.74-.06-5.23-.29,1.68,0,3.64-.06,6.21-.14l.42-.13A4.2,4.2,0,0,1,871.36,135.76Z"/><path class="cls-1" d="M877.73,134.29c.52,0,.8-.08,1.47-.09-.73-.09-1.42-.18-2.12-.25l-1.26.35Z"/><path class="cls-1" d="M1041.19,4.28l-.47,0a6.2,6.2,0,0,1,1,.16A4.8,4.8,0,0,1,1041.19,4.28Z"/><polygon class="cls-1" points="514.41 125.82 514.44 126.1 516.4 125.85 514.41 125.82"/><path class="cls-1" d="M1164.65,8.13a5.82,5.82,0,0,0,1.62.29A9,9,0,0,0,1164.65,8.13Z"/><path class="cls-1" d="M1218,8.39l7.54.4C1222.26,8.56,1219.88,8.45,1218,8.39Z"/><path class="cls-1" d="M1259,8.94a1.72,1.72,0,0,0,.8-.48h-.08Z"/><path class="cls-1" d="M607,10.27c-.55,0-1.1,0-1.59.05C601.74,10.53,604.27,10.45,607,10.27Z"/><path class="cls-1" d="M801.05,7.64c-2.06.2-4.09.4-6.24.53C798.26,8.26,801,8.28,801.05,7.64Z"/><path class="cls-1" d="M390.39,11.62l0,0h-1.33Z"/><path class="cls-1" d="M785.79,8.15a71.47,71.47,0,0,0,9,0C792,8.09,788.64,8,785.79,8.15Z"/><path class="cls-1" d="M1358.46,80.68l0,2c.08,0,.14.09.18.24Z"/><path class="cls-1" d="M1358.59,82.89l.14,2.19A8.73,8.73,0,0,0,1358.59,82.89Z"/><path class="cls-1" d="M1359,89.7l-.28-4.62A19.61,19.61,0,0,0,1359,89.7Z"/><path class="cls-1" d="M1359,26.4l-.41-.62C1358.66,26.11,1358.79,26.33,1359,26.4Z"/><path class="cls-1" d="M1358.86,11.11c0,.26,0,.54-.06.82l0,.43-.06.83c-.08,1.2-.17,2.48-.27,3.81a75.5,75.5,0,0,0-.17,8.26l.32.52c-.3-1.29-.06-4.33.18-7.51.11-1.59.23-3.21.27-4.67,0-.37,0-.72,0-1.07s0-.39,0-.58A2.61,2.61,0,0,0,1358.86,11.11Z"/><path class="cls-1" d="M1297.07,4l13.82.33c-2.41-.44-5.59-1,.7-1.12C1294.16,1.92,1315.18,4.19,1297.07,4Z"/><path class="cls-1" d="M1254.21,3.38c7.43-.2-.08-.63.31-.87C1249.81,2.9,1248.67,3,1254.21,3.38Z"/><path class="cls-1" d="M944.49,3.38l.75-1C939.51,2.5,945.18,2.75,944.49,3.38Z"/><polygon class="cls-1" points="885.28 8.67 890.85 9.3 893.5 8.37 885.28 8.67"/><polygon class="cls-1" points="850.31 1.38 852.81 1.23 843.26 1.6 850.31 1.38"/><path class="cls-1" d="M330.13,1.74,331.86,3C335.72,2.78,336.54,1.36,330.13,1.74Z"/><path class="cls-1" d="M105.56,3a41.12,41.12,0,0,0-12.65-.42C98,2.7,103,3.19,105.56,3Z"/><polygon class="cls-1" points="454.85 135.92 450.34 136.34 458.85 135.99 454.85 135.92"/></g></g></svg>